HIERARCHY
ROOT RootJoint
{
    OFFSET   0.000000   0.000000   0.000000
    CHANNELS 6 Xposition Yposition Zposition Xrotation Yrotation Zrotation
    JOINT pelvis_lowerback
    {
        OFFSET   0.000000   0.093605   0.000000
        CHANNELS 3 Xrotation Yrotation Zrotation
        JOINT lowerback_torso
        {
            OFFSET   0.000000   0.100000   0.000000
            CHANNELS 3 Xrotation Yrotation Zrotation
            JOINT torso_head
            {
                OFFSET   0.000000   0.282350   0.000000
                CHANNELS 3 Xrotation Yrotation Zrotation
                End Site
                {
                    OFFSET   0.000000   0.192650   0.000000
                }
            }
            JOINT rTorso_Clavicle
            {
                OFFSET  -0.001000   0.157500   0.000000
                CHANNELS 3 Xrotation Yrotation Zrotation
                JOINT rShoulder
                {
                    OFFSET  -0.117647   0.000000   0.000000
                    CHANNELS 3 Xrotation Yrotation Zrotation
                    JOINT rElbow
                    {
                        OFFSET  -0.245000   0.000000   0.000000
                        CHANNELS 3 Xrotation Yrotation Zrotation
                        JOINT rWrist
                        {
                            OFFSET  -0.240000   0.000000   0.000000
                            CHANNELS 3 Xrotation Yrotation Zrotation
                            End Site
                            {
                                OFFSET  -0.116353  -0.002500   0.000000
                            }
                        }
                    }
                }
            }
            JOINT lTorso_Clavicle
            {
                OFFSET   0.001000   0.157500   0.000000
                CHANNELS 3 Xrotation Yrotation Zrotation
                JOINT lShoulder
                {
                    OFFSET   0.117647   0.000000   0.000000
                    CHANNELS 3 Xrotation Yrotation Zrotation
                    JOINT lElbow
                    {
                        OFFSET   0.245000   0.000000   0.000000
                        CHANNELS 3 Xrotation Yrotation Zrotation
                        JOINT lWrist
                        {
                            OFFSET   0.240000   0.000000   0.000000
                            CHANNELS 3 Xrotation Yrotation Zrotation
                            End Site
                            {
                                OFFSET   0.116353  -0.002500   0.000000
                            }
                        }
                    }
                }
            }
        }
    }
    JOINT rHip
    {
        OFFSET  -0.100000  -0.051395   0.000000
        CHANNELS 3 Xrotation Yrotation Zrotation
        JOINT rKnee
        {
            OFFSET   0.000000  -0.410000   0.000000
            CHANNELS 3 Xrotation Yrotation Zrotation
            JOINT rAnkle
            {
                OFFSET   0.000000  -0.390000   0.000000
                CHANNELS 3 Xrotation Yrotation Zrotation
                JOINT rToeJoint
                {
                    OFFSET   0.000000  -0.050000   0.130000
                    CHANNELS 3 Xrotation Yrotation Zrotation
                    End Site
                    {
                        OFFSET  -0.010000   0.002000   0.060000
                    }
                }
            }
        }
    }
    JOINT lHip
    {
        OFFSET   0.100000  -0.051395   0.000000
        CHANNELS 3 Xrotation Yrotation Zrotation
        JOINT lKnee
        {
            OFFSET   0.000000  -0.410000   0.000000
            CHANNELS 3 Xrotation Yrotation Zrotation
            JOINT lAnkle
            {
                OFFSET   0.000000  -0.390000   0.000000
                CHANNELS 3 Xrotation Yrotation Zrotation
                JOINT lToeJoint
                {
                    OFFSET   0.000000  -0.050000   0.130000
                    CHANNELS 3 Xrotation Yrotation Zrotation
                    End Site
                    {
                        OFFSET   0.010000   0.002000   0.060000
                    }
                }
            }
        }
    }
}
MOTION
Frames: 12
Frame Time:   0.008333
 -3.014622   0.823352   4.598243  -2.077267   6.533777 -10.717402  22.890609   5.325326  -4.070038   1.860975   0.848116  -1.575320  -5.771294  -2.095440   1.914349  -1.685327  -3.374052   7.744827 -10.898825  -3.310573  29.000843  -0.010117  38.146588   0.012694  -0.400693   4.065576 -23.317365   3.902429   7.668221  -5.867576   4.097642   5.030073 -43.451399   0.000436 -33.139668  -0.003013  -1.522629  -5.138830  21.310746 -13.734526  -3.991945 -22.157674  43.447631   0.005228   0.009097  -4.138021  -3.606069   7.103552  -7.443725   0.027105   0.003057 -32.169397  -3.571737  11.774176  62.545269  -0.016244   0.029647 -29.318926   1.837006   4.468287  -4.628154  -0.001476  -0.011027
 -3.022283   0.816274   4.597623  -2.328691   6.785020 -10.429416  23.475942   5.422108  -4.159268   1.798249   0.971620  -1.781701  -5.945740  -2.193901   1.796229  -1.724862  -2.986178   7.797369 -10.991358  -3.147067  29.091825  -0.012391  37.412625   0.015338  -0.332516   4.250490 -23.671226   3.872645   7.716128  -5.928265   3.841127   5.032933 -43.296494  -0.000241 -33.425402  -0.003891  -1.546382  -5.024641  21.622943 -13.828199  -4.015203 -21.918804  44.317638   0.001045   0.009986  -4.207130  -3.745720   6.612187  -6.899670   0.021922   0.002910 -32.915617  -3.937434  11.945036  64.366762  -0.017802   0.031383 -30.337105   1.531653   4.486151  -4.192466  -0.003313  -0.009248
 -3.030026   0.809125   4.597046  -2.585022   7.051608 -10.118356  24.061174   5.487475  -4.253670   1.748658   1.073356  -1.974421  -6.113621  -2.289225   1.670315  -1.767170  -2.603724   7.844250 -11.081212  -2.990299  29.171634  -0.013803  36.712814   0.017015  -0.298104   4.340162 -24.002610   3.822629   7.739357  -5.951839   3.579680   5.019851 -43.124903  -0.000928 -33.705105  -0.004491  -1.547344  -4.973354  21.980699 -13.929972  -4.061225 -21.665352  45.166951  -0.002464   0.010871  -4.266516  -3.875901   6.154016  -6.372880   0.017438   0.002945 -33.640566  -4.266127  12.129939  66.119321  -0.018434   0.033544 -31.285373   1.251201   4.488585  -3.798902  -0.004599  -0.007473
 -3.037787   0.801924   4.596555  -2.846555   7.320370  -9.770902  24.630124   5.531668  -4.357216   1.715164   1.153646  -2.158148  -6.268086  -2.378004   1.549077  -1.808979  -2.241645   7.887571 -11.167066  -2.841395  29.245806  -0.014510  36.059461   0.017766  -0.270856   4.410154 -24.318070   3.761680   7.744185  -5.954375   3.322148   4.996565 -42.949241  -0.001547 -33.972105  -0.004856  -1.534411  -4.959261  22.352014 -14.027773  -4.109544 -21.414869  45.963682  -0.005196   0.011625  -4.322392  -3.996351   5.726420  -5.888050   0.013616   0.003106 -34.334168  -4.567516  12.300490  67.800733  -0.018559   0.035370 -32.167464   0.991017   4.483059  -3.437853  -0.005479  -0.005905
 -3.045546   0.794684   4.596173  -3.114188   7.581916  -9.386838  25.177432   5.560279  -4.466529   1.694037   1.216867  -2.334161  -6.410211  -2.460516   1.433908  -1.848660  -1.902284   7.928151 -11.247993  -2.701701  29.315120  -0.014721  35.450047   0.017799  -0.244210   4.476642 -24.621315   3.695709   7.737228  -5.946030   3.073415   4.967074 -42.776811  -0.002075 -34.224950  -0.005048  -1.513461  -4.966513  22.721335 -14.121767  -4.155992 -21.170645  46.704381  -0.007269   0.012179  -4.375342  -4.107923   5.327212  -5.442842   0.010381   0.003311 -34.992628  -4.844866  12.452979  69.413891  -0.018410   0.036683 -32.987967   0.749067   4.471559  -3.106672  -0.006041  -0.004581
 -3.052411   0.788404   4.595760  -3.352550   7.792077  -9.184792  25.703073   5.619048  -4.343820   1.658220   1.299355  -2.453835  -6.552372  -2.535455   1.326581  -1.898764  -1.568069   7.978379 -11.335005  -2.562729  29.360859  -0.015114  34.873983   0.017339  -0.223290   4.527370 -24.920794   3.630317   7.720298  -6.066448   2.844468   4.929482 -42.682025  -0.002253 -34.456475  -0.004953  -1.497954  -4.962237  23.032352 -14.165904  -4.151312 -21.092568  48.186943  -0.008088   0.012941  -5.309604  -4.453542   5.038734 -16.157290  -0.003154   0.016709 -35.550250  -5.202011  12.701187  70.818905  -0.017740   0.035625 -33.763894   0.516073   4.474077  -2.795971  -0.006282  -0.003679
 -3.058755   0.782938   4.595216  -3.540235   7.898200  -9.057021  26.196163   5.696388  -4.200684   1.614908   1.397306  -2.521237  -6.687759  -2.604864   1.240977  -1.950668  -1.235816   8.045250 -11.417606  -2.421630  29.425417  -0.015436  34.340927   0.016626  -0.199780   4.585596 -25.180554   3.568948   7.698414  -6.201542   2.633707   4.887676 -42.618802  -0.002310 -34.674966  -0.004620  -1.484052  -4.960726  23.278608 -14.276607  -4.149162 -20.993317  49.326363  -0.008259   0.011882  -6.100699  -4.583777   4.806501 -25.116119  -0.006879   0.013470 -36.044985  -5.551296  12.990398  72.022734  -0.016952   0.033013 -34.503079   0.297409   4.474905  -2.510092  -0.006267  -0.003101
 -3.064579   0.778345   4.593947  -3.546371   8.046527  -9.239882  26.709923   5.779650  -3.816896   1.489664   1.564558  -2.472514  -6.889800  -2.633834   1.060891  -1.977769  -0.843341   8.043272 -11.460515  -2.359897  29.346500  -0.016481  33.683378   0.017907  -0.118886   4.678120 -25.444061   3.441756   7.561798  -6.502558   2.368490   4.767340 -42.487685  -0.002161 -34.858204  -0.004020  -1.494905  -4.905597  23.611394 -14.918671  -4.144650 -20.686637  50.987527  -0.008972   0.011532  -7.963392  -4.656959   4.630631 -24.970186  -0.005616   0.010866 -36.731495  -6.000542  13.535091  73.073444  -0.014958   0.031426 -35.019145  -0.068731   4.435660  -2.140295  -0.006416  -0.002652
 -3.070000   0.774184   4.592598  -3.508510   8.283683  -9.435030  27.231962   5.806719  -3.468981   1.401593   1.680514  -2.386792  -7.072642  -2.657284   0.903452  -1.994960  -0.482612   8.026676 -11.495001  -2.312460  29.265659  -0.016774  33.060345   0.018905  -0.060951   4.709876 -25.689201   3.288890   7.390377  -6.755991   2.091958   4.623497 -42.352504  -0.001986 -35.043854  -0.003358  -1.486027  -4.898766  23.939541 -15.528997  -4.151216 -20.421854  52.468114  -0.008002   0.011684  -9.335081  -4.720057   4.358432 -25.175030  -0.004598   0.008367 -37.430685  -6.440157  14.056514  74.008913  -0.012546   0.030087 -35.509360  -0.411731   4.394791  -1.790064  -0.006383  -0.001899
 -3.075070   0.770269   4.591271  -3.439363   8.554550  -9.620722  27.743796   5.801639  -3.170630   1.343055   1.755856  -2.302110  -7.235711  -2.678317   0.757502  -2.004815  -0.156299   8.003827 -11.523489  -2.275251  29.187980  -0.016372  32.477304   0.019403  -0.012195   4.723171 -25.924878   3.128545   7.209925  -6.957856   1.817870   4.474367 -42.206374  -0.001798 -35.226272  -0.002686  -1.457355  -4.937436  24.271001 -16.083731  -4.159361 -20.202506  53.775930  -0.006348   0.011724 -10.498977  -4.781995   4.069372 -25.378889  -0.003898   0.006272 -38.137110  -6.848289  14.549094  74.868491  -0.010167   0.028792 -35.973445  -0.728877   4.349059  -1.471367  -0.006165  -0.001090
 -3.079796   0.766526   4.589998  -3.352303   8.827888  -9.799972  28.245295   5.778108  -2.915134   1.307638   1.804948  -2.228554  -7.383214  -2.697406   0.618986  -2.010286   0.140316   7.975186 -11.548385  -2.245588  29.111225  -0.015469  31.932183   0.019442   0.031785   4.728730 -26.158150   2.968820   7.030879  -7.120834   1.552733   4.327675 -42.053651  -0.001586 -35.401387  -0.002032  -1.416951  -5.001754  24.610120 -16.593075  -4.164704 -20.015233  54.949071  -0.004606   0.011467 -11.539402  -4.837190   3.783979 -25.517207  -0.003299   0.004706 -38.837831  -7.229980  15.015955  75.673173  -0.008038   0.027409 -36.409489  -1.022377   4.300370  -1.180651  -0.005827  -0.000378
 -3.084179   0.762929   4.588800  -3.256242   9.090923  -9.976365  28.736375   5.742390  -2.695932   1.292174   1.835947  -2.167606  -7.517386  -2.714861   0.487381  -2.012931   0.410946   7.941796 -11.570874  -2.221782  29.034821  -0.014253  31.422629   0.019109   0.072211   4.729469 -26.391668   2.813930   6.857758  -7.255997   1.299935   4.186659 -41.899645  -0.001349 -35.567282  -0.001416  -1.370861  -5.077527  24.952973 -17.064838  -4.163081 -19.849248  56.017419  -0.002994   0.010971 -12.484669  -4.879837   3.507923 -25.600703  -0.002756   0.003568 -39.522101  -7.593285  15.457126  76.433920  -0.006228   0.025904 -36.817465  -1.294890   4.251153  -0.914873  -0.005419   0.000180
